<mxfile host="65bd71144e">
    <diagram name="Page-1" id="UtpHl4ARBOucqe9Nt2o0">
        <mxGraphModel dx="1046" dy="616" grid="0" gridSize="10" guides="1" tooltips="1" connect="1" arrows="1" fold="1" page="1" pageScale="1" pageWidth="827" pageHeight="1169" background="none" math="0" shadow="0">
            <root>
                <mxCell id="0"/>
                <mxCell id="1" parent="0"/>
                <mxCell id="MN6aCFW4edd8GgNkVKiP-10" value="" style="edgeStyle=orthogonalEdgeStyle;rounded=0;orthogonalLoop=1;jettySize=auto;html=1;strokeColor=#3F2B29;exitX=1;exitY=0.5;exitDx=0;exitDy=0;entryX=0;entryY=0.5;entryDx=0;entryDy=0;dashed=1;" parent="1" source="lG0zF8bITZGp1ZAjM_VV-1" target="MN6aCFW4edd8GgNkVKiP-9" edge="1">
                    <mxGeometry relative="1" as="geometry">
                        <Array as="points">
                            <mxPoint x="201" y="224"/>
                            <mxPoint x="201" y="406"/>
                        </Array>
                        <mxPoint x="280" y="400" as="targetPoint"/>
                    </mxGeometry>
                </mxCell>
                <mxCell id="ubO4bg-7dvknVHA9PmHo-1" style="edgeStyle=orthogonalEdgeStyle;rounded=0;orthogonalLoop=1;jettySize=auto;html=1;exitX=1;exitY=0.75;exitDx=0;exitDy=0;entryX=0;entryY=0.25;entryDx=0;entryDy=0;dashed=1;" parent="1" source="lG0zF8bITZGp1ZAjM_VV-1" target="lG0zF8bITZGp1ZAjM_VV-23" edge="1">
                    <mxGeometry relative="1" as="geometry">
                        <Array as="points">
                            <mxPoint x="188" y="236"/>
                            <mxPoint x="188" y="611"/>
                        </Array>
                    </mxGeometry>
                </mxCell>
                <mxCell id="lG0zF8bITZGp1ZAjM_VV-1" value="Spaceranger&amp;nbsp;&lt;div&gt;Count&lt;/div&gt;" style="rounded=1;whiteSpace=wrap;html=1;strokeColor=#3F2B29;shape=parallelogram;boundedLbl=1;perimeter=parallelogramPerimeter;fixedSize=1;" parent="1" vertex="1">
                    <mxGeometry x="39.5" y="194" width="120" height="60" as="geometry"/>
                </mxCell>
                <mxCell id="q4rEuiHk8W_c-3m5-zlU-2" value="" style="edgeStyle=orthogonalEdgeStyle;rounded=0;orthogonalLoop=1;jettySize=auto;html=1;strokeColor=#3F2B29;exitX=1;exitY=0.5;exitDx=0;exitDy=0;entryX=0.5;entryY=0;entryDx=0;entryDy=0;" parent="1" source="lG0zF8bITZGp1ZAjM_VV-3" target="23" edge="1">
                    <mxGeometry relative="1" as="geometry">
                        <mxPoint x="376" y="125" as="targetPoint"/>
                    </mxGeometry>
                </mxCell>
                <mxCell id="lG0zF8bITZGp1ZAjM_VV-3" value="Input Check" style="rounded=1;whiteSpace=wrap;html=1;strokeColor=#3F2B29;" parent="1" vertex="1">
                    <mxGeometry x="219" y="45" width="120" height="60" as="geometry"/>
                </mxCell>
                <mxCell id="cCUpEwaMNrmo6Q71-gxC-1" style="edgeStyle=orthogonalEdgeStyle;rounded=0;orthogonalLoop=1;jettySize=auto;html=1;exitX=1;exitY=0.5;exitDx=0;exitDy=0;entryX=0;entryY=0.5;entryDx=0;entryDy=0;strokeColor=#3F2B29;dashed=1;" parent="1" source="lG0zF8bITZGp1ZAjM_VV-15" target="lG0zF8bITZGp1ZAjM_VV-23" edge="1">
                    <mxGeometry relative="1" as="geometry">
                        <Array as="points">
                            <mxPoint x="177" y="294"/>
                            <mxPoint x="177" y="626"/>
                        </Array>
                    </mxGeometry>
                </mxCell>
                <mxCell id="lG0zF8bITZGp1ZAjM_VV-15" value="CODA csv files" style="rounded=1;whiteSpace=wrap;html=1;fillColor=default;strokeColor=#3F2B29;shape=parallelogram;boundedLbl=1;perimeter=parallelogramPerimeter;fixedSize=1;dashed=1;" parent="1" vertex="1">
                    <mxGeometry x="39.5" y="264" width="120" height="60" as="geometry"/>
                </mxCell>
                <mxCell id="MN6aCFW4edd8GgNkVKiP-12" value="" style="edgeStyle=orthogonalEdgeStyle;rounded=0;orthogonalLoop=1;jettySize=auto;html=1;entryX=0.5;entryY=1;entryDx=0;entryDy=0;strokeColor=#3F2B29;exitX=0.5;exitY=0;exitDx=0;exitDy=0;dashed=1;" parent="1" source="lG0zF8bITZGp1ZAjM_VV-23" target="MN6aCFW4edd8GgNkVKiP-9" edge="1">
                    <mxGeometry relative="1" as="geometry">
                        <mxPoint x="276" y="490" as="targetPoint"/>
                        <mxPoint x="285" y="553" as="sourcePoint"/>
                    </mxGeometry>
                </mxCell>
                <mxCell id="ubO4bg-7dvknVHA9PmHo-11" value="" style="edgeStyle=orthogonalEdgeStyle;rounded=0;orthogonalLoop=1;jettySize=auto;html=1;entryX=1;entryY=0.75;entryDx=0;entryDy=0;exitX=0.5;exitY=1;exitDx=0;exitDy=0;dashed=1;" parent="1" source="lG0zF8bITZGp1ZAjM_VV-25" target="lG0zF8bITZGp1ZAjM_VV-23" edge="1">
                    <mxGeometry relative="1" as="geometry">
                        <mxPoint x="518" y="610" as="targetPoint"/>
                    </mxGeometry>
                </mxCell>
                <mxCell id="lG0zF8bITZGp1ZAjM_VV-25" value="&lt;span style=&quot;color: rgb(0, 0, 0);&quot;&gt;BayesTME&amp;nbsp;&lt;/span&gt;&lt;div style=&quot;scrollbar-color: light-dark(#e2e2e2, #4b4b4b)&lt;br/&gt;&#x9;&#x9;&#x9;&#x9;&#x9;light-dark(#fbfbfb, var(--dark-panel-color));&quot;&gt;deconvolution&lt;/div&gt;&lt;div style=&quot;scrollbar-color: light-dark(#e2e2e2, #4b4b4b)&lt;br/&gt;&#x9;&#x9;&#x9;&#x9;&#x9;light-dark(#fbfbfb, var(--dark-panel-color));&quot;&gt;&lt;font style=&quot;font-size: 10px;&quot;&gt;spatially aware&lt;/font&gt;&lt;/div&gt;" style="rounded=1;whiteSpace=wrap;html=1;strokeColor=#3F2B29;dashed=1;shadow=1;" parent="1" vertex="1">
                    <mxGeometry x="596" y="471" width="120" height="60" as="geometry"/>
                </mxCell>
                <mxCell id="lG0zF8bITZGp1ZAjM_VV-33" value="&lt;div&gt;&lt;span style=&quot;color: rgb(0, 0, 0);&quot;&gt;CoGAPS deconvolution&lt;/span&gt;&lt;br&gt;&lt;/div&gt;&lt;div&gt;&lt;font style=&quot;font-size: 10px;&quot; color=&quot;#000000&quot;&gt;spatially unaware&lt;/font&gt;&lt;/div&gt;" style="rounded=1;whiteSpace=wrap;html=1;strokeColor=#3F2B29;dashed=1;" parent="1" vertex="1">
                    <mxGeometry x="456" y="471" width="120" height="60" as="geometry"/>
                </mxCell>
                <mxCell id="MN6aCFW4edd8GgNkVKiP-9" value="MultiQC" style="rounded=1;whiteSpace=wrap;html=1;strokeColor=#3F2B29;" parent="1" vertex="1">
                    <mxGeometry x="220" y="376" width="120" height="60" as="geometry"/>
                </mxCell>
                <mxCell id="12" style="edgeStyle=orthogonalEdgeStyle;rounded=0;orthogonalLoop=1;jettySize=auto;html=1;exitX=0.75;exitY=1;exitDx=0;exitDy=0;strokeColor=#3F2B29;" parent="1" source="13" target="2" edge="1">
                    <mxGeometry relative="1" as="geometry">
                        <Array as="points">
                            <mxPoint x="407" y="726"/>
                        </Array>
                    </mxGeometry>
                </mxCell>
                <mxCell id="lG0zF8bITZGp1ZAjM_VV-23" value="Spacemarkers&lt;div&gt;&lt;font style=&quot;font-size: 10px;&quot;&gt;ROI interaction&lt;/font&gt;&lt;/div&gt;" style="rounded=1;whiteSpace=wrap;html=1;strokeColor=#3F2B29;dashed=1;" parent="1" vertex="1">
                    <mxGeometry x="220" y="596" width="120" height="60" as="geometry"/>
                </mxCell>
                <mxCell id="ubO4bg-7dvknVHA9PmHo-17" value="" style="edgeStyle=orthogonalEdgeStyle;rounded=0;orthogonalLoop=1;jettySize=auto;html=1;" parent="1" source="ubO4bg-7dvknVHA9PmHo-16" target="lG0zF8bITZGp1ZAjM_VV-3" edge="1">
                    <mxGeometry relative="1" as="geometry"/>
                </mxCell>
                <mxCell id="ubO4bg-7dvknVHA9PmHo-16" value="&lt;div&gt;Samplesheet&lt;/div&gt;" style="rounded=1;whiteSpace=wrap;html=1;strokeColor=#3F2B29;shape=parallelogram;boundedLbl=1;perimeter=parallelogramPerimeter;fixedSize=1;" parent="1" vertex="1">
                    <mxGeometry x="49.5" y="45" width="120" height="60" as="geometry"/>
                </mxCell>
                <mxCell id="41" value="" style="edgeStyle=none;html=1;" edge="1" parent="1">
                    <mxGeometry relative="1" as="geometry">
                        <mxPoint x="792" y="78" as="targetPoint"/>
                        <mxPoint x="712" y="78" as="sourcePoint"/>
                    </mxGeometry>
                </mxCell>
                <mxCell id="43" value="&lt;font style=&quot;font-size: 10px;&quot;&gt;SD &amp;amp; HD&lt;/font&gt;" style="edgeLabel;html=1;align=center;verticalAlign=middle;resizable=0;points=[];" vertex="1" connectable="0" parent="41">
                    <mxGeometry x="0.025" y="2" relative="1" as="geometry">
                        <mxPoint y="1" as="offset"/>
                    </mxGeometry>
                </mxCell>
                <mxCell id="2" value="Squidpy&lt;div&gt;&lt;font style=&quot;font-size: 10px;&quot;&gt;scatter - enrichment - co-occurence - interaction&lt;/font&gt;&lt;/div&gt;" style="rounded=1;whiteSpace=wrap;html=1;strokeColor=#3F2B29;" parent="1" vertex="1">
                    <mxGeometry x="346" y="684" width="120" height="60" as="geometry"/>
                </mxCell>
                <mxCell id="6" value="&lt;font style=&quot;font-size: 10px;&quot;&gt;optional&lt;/font&gt;" style="rounded=1;whiteSpace=wrap;html=1;fillColor=#FFFFFF;strokeColor=#3F2B29;dashed=1;" parent="1" vertex="1">
                    <mxGeometry x="711" y="134.5" width="83" height="26" as="geometry"/>
                </mxCell>
                <mxCell id="7" value="scRNA ref&lt;div&gt;atlas / matched&lt;/div&gt;" style="rounded=1;whiteSpace=wrap;html=1;fillColor=#FAFAFA;strokeColor=#3F2B29;shape=parallelogram;boundedLbl=1;perimeter=parallelogramPerimeter;fixedSize=1;dashed=1;" parent="1" vertex="1">
                    <mxGeometry x="49.5" y="121" width="120" height="60" as="geometry"/>
                </mxCell>
                <mxCell id="13" value="&lt;div style=&quot;scrollbar-color: light-dark(#e2e2e2, #4b4b4b)&lt;br/&gt;&#x9;&#x9;&#x9;&#x9;&#x9;light-dark(#fbfbfb, var(--dark-panel-color));&quot;&gt;&lt;font color=&quot;#000000&quot;&gt;RCTD&lt;/font&gt;&lt;/div&gt;&lt;div style=&quot;scrollbar-color: light-dark(#e2e2e2, #4b4b4b)&lt;br/&gt;&#x9;&#x9;&#x9;&#x9;&#x9;light-dark(#fbfbfb, var(--dark-panel-color));&quot;&gt;deconvolution&lt;/div&gt;&lt;div style=&quot;scrollbar-color: light-dark(#e2e2e2, #4b4b4b)&lt;br/&gt;&#x9;&#x9;&#x9;&#x9;&#x9;light-dark(#fbfbfb, var(--dark-panel-color));&quot;&gt;&lt;font style=&quot;font-size: 10px;&quot;&gt;spatially aware w/ref&lt;/font&gt;&lt;/div&gt;" style="rounded=1;whiteSpace=wrap;html=1;strokeColor=#3F2B29;dashed=1;fillColor=none;" parent="1" vertex="1">
                    <mxGeometry x="317" y="470" width="120" height="60" as="geometry"/>
                </mxCell>
                <mxCell id="18" value="" style="edgeStyle=orthogonalEdgeStyle;rounded=0;orthogonalLoop=1;jettySize=auto;html=1;exitX=0.5;exitY=1;exitDx=0;exitDy=0;entryX=1;entryY=0.25;entryDx=0;entryDy=0;dashed=1;" parent="1" source="13" target="lG0zF8bITZGp1ZAjM_VV-23" edge="1">
                    <mxGeometry relative="1" as="geometry">
                        <mxPoint x="324" y="589" as="targetPoint"/>
                        <mxPoint x="336" y="505" as="sourcePoint"/>
                    </mxGeometry>
                </mxCell>
                <mxCell id="35" value="" style="edgeStyle=none;html=1;entryX=0.5;entryY=0;entryDx=0;entryDy=0;dotted=1" edge="1" parent="1" source="23" target="13">
                    <mxGeometry relative="1" as="geometry">
                        <mxPoint x="378" y="335" as="targetPoint"/>
                    </mxGeometry>
                </mxCell>
                <mxCell id="23" value="Load Dataset&lt;div&gt;&lt;font style=&quot;font-size: 11px;&quot;&gt;Visium SD/HD&lt;/font&gt;&lt;/div&gt;&lt;div&gt;&lt;font style=&quot;font-size: 11px;&quot;&gt;scRNA Atlas&lt;/font&gt;&lt;/div&gt;" style="rounded=1;whiteSpace=wrap;html=1;strokeColor=#3F2B29;dashed=0;shadow=1;" parent="1" vertex="1">
                    <mxGeometry x="318" y="195" width="120" height="60" as="geometry"/>
                </mxCell>
                <mxCell id="24" style="edgeStyle=orthogonalEdgeStyle;rounded=0;orthogonalLoop=1;jettySize=auto;html=1;exitX=1;exitY=0.25;exitDx=0;exitDy=0;entryX=0;entryY=0.25;entryDx=0;entryDy=0;" parent="1" source="lG0zF8bITZGp1ZAjM_VV-1" target="23" edge="1">
                    <mxGeometry relative="1" as="geometry">
                        <mxPoint x="150" y="193" as="sourcePoint"/>
                        <mxPoint x="292" y="274" as="targetPoint"/>
                        <Array as="points"/>
                    </mxGeometry>
                </mxCell>
                <mxCell id="30" value="" style="edgeStyle=orthogonalEdgeStyle;rounded=0;orthogonalLoop=1;jettySize=auto;html=1;strokeColor=#3F2B29;exitX=1;exitY=0.5;exitDx=0;exitDy=0;entryX=0.5;entryY=0;entryDx=0;entryDy=0;dashed=1;" parent="1" source="23" target="lG0zF8bITZGp1ZAjM_VV-33" edge="1">
                    <mxGeometry relative="1" as="geometry">
                        <mxPoint x="536" y="211" as="targetPoint"/>
                        <mxPoint x="499" y="161" as="sourcePoint"/>
                        <Array as="points">
                            <mxPoint x="516" y="225"/>
                        </Array>
                    </mxGeometry>
                </mxCell>
                <mxCell id="32" value="" style="edgeStyle=orthogonalEdgeStyle;rounded=0;orthogonalLoop=1;jettySize=auto;html=1;strokeColor=#3F2B29;exitX=1;exitY=0.5;exitDx=0;exitDy=0;entryX=0.5;entryY=0;entryDx=0;entryDy=0;dashed=1;" parent="1" source="lG0zF8bITZGp1ZAjM_VV-3" target="lG0zF8bITZGp1ZAjM_VV-25" edge="1">
                    <mxGeometry relative="1" as="geometry">
                        <mxPoint x="667" y="319" as="targetPoint"/>
                        <mxPoint x="349" y="85" as="sourcePoint"/>
                        <Array as="points">
                            <mxPoint x="656" y="75"/>
                        </Array>
                    </mxGeometry>
                </mxCell>
                <mxCell id="33" value="" style="edgeStyle=orthogonalEdgeStyle;rounded=0;orthogonalLoop=1;jettySize=auto;html=1;strokeColor=#3F2B29;exitX=0.5;exitY=1;exitDx=0;exitDy=0;entryX=1;entryY=0.5;entryDx=0;entryDy=0;dashed=1;" parent="1" source="lG0zF8bITZGp1ZAjM_VV-33" target="lG0zF8bITZGp1ZAjM_VV-23" edge="1">
                    <mxGeometry relative="1" as="geometry">
                        <mxPoint x="396" y="145" as="targetPoint"/>
                        <mxPoint x="359" y="95" as="sourcePoint"/>
                    </mxGeometry>
                </mxCell>
                <mxCell id="34" value="" style="edgeStyle=orthogonalEdgeStyle;rounded=0;orthogonalLoop=1;jettySize=auto;html=1;strokeColor=#3F2B29;exitX=1;exitY=0.5;exitDx=0;exitDy=0;entryX=0.25;entryY=0;entryDx=0;entryDy=0;" parent="1" source="7" target="23" edge="1">
                    <mxGeometry relative="1" as="geometry">
                        <mxPoint x="386" y="135" as="targetPoint"/>
                        <mxPoint x="349" y="85" as="sourcePoint"/>
                    </mxGeometry>
                </mxCell>
                <mxCell id="42" value="" style="edgeStyle=none;html=1;dashed=1;" edge="1" parent="1">
                    <mxGeometry relative="1" as="geometry">
                        <mxPoint x="794" y="111.5" as="targetPoint"/>
                        <mxPoint x="714" y="111.5" as="sourcePoint"/>
                    </mxGeometry>
                </mxCell>
                <mxCell id="44" value="&lt;font style=&quot;font-size: 10px;&quot;&gt;SD only&lt;/font&gt;" style="edgeLabel;html=1;align=center;verticalAlign=middle;resizable=0;points=[];" vertex="1" connectable="0" parent="42">
                    <mxGeometry x="-0.1" y="1" relative="1" as="geometry">
                        <mxPoint as="offset"/>
                    </mxGeometry>
                </mxCell>
            </root>
        </mxGraphModel>
    </diagram>
</mxfile>